<mxfile host="app.diagrams.net" agent="Mozilla/5.0 (Windows NT 10.0; Win64; x64) AppleWebKit/537.36 (KHTML, like Gecko) Chrome/138.0.0.0 Safari/537.36 Edg/138.0.0.0" version="27.2.0">
  <diagram name="Página-1" id="0PXf1TCBegAxyWsQR31G">
    <mxGraphModel dx="738" dy="507" grid="1" gridSize="10" guides="1" tooltips="1" connect="1" arrows="1" fold="1" page="1" pageScale="1" pageWidth="827" pageHeight="1169" math="0" shadow="0" adaptiveColors="none">
      <root>
        <mxCell id="0" />
        <mxCell id="1" parent="0" />
        <mxCell id="czYBRsTqgM-yQS3sCVQu-1" style="rounded=0;orthogonalLoop=1;jettySize=auto;html=1;entryX=0;entryY=0.5;entryDx=0;entryDy=0;endArrow=none;endFill=0;" edge="1" parent="1" source="czYBRsTqgM-yQS3sCVQu-3" target="czYBRsTqgM-yQS3sCVQu-17">
          <mxGeometry relative="1" as="geometry" />
        </mxCell>
        <mxCell id="czYBRsTqgM-yQS3sCVQu-2" style="rounded=0;orthogonalLoop=1;jettySize=auto;html=1;entryX=0;entryY=0.5;entryDx=0;entryDy=0;endArrow=none;endFill=0;" edge="1" parent="1" source="czYBRsTqgM-yQS3sCVQu-3" target="czYBRsTqgM-yQS3sCVQu-26">
          <mxGeometry relative="1" as="geometry" />
        </mxCell>
        <mxCell id="czYBRsTqgM-yQS3sCVQu-3" value="Paciente" style="shape=umlActor;verticalLabelPosition=bottom;verticalAlign=top;html=1;" vertex="1" parent="1">
          <mxGeometry x="430" y="380" width="30" height="60" as="geometry" />
        </mxCell>
        <mxCell id="czYBRsTqgM-yQS3sCVQu-4" style="rounded=0;orthogonalLoop=1;jettySize=auto;html=1;entryX=1;entryY=0.5;entryDx=0;entryDy=0;endArrow=none;endFill=0;" edge="1" parent="1" source="czYBRsTqgM-yQS3sCVQu-6" target="czYBRsTqgM-yQS3sCVQu-14">
          <mxGeometry relative="1" as="geometry" />
        </mxCell>
        <mxCell id="czYBRsTqgM-yQS3sCVQu-5" style="rounded=0;orthogonalLoop=1;jettySize=auto;html=1;entryX=1;entryY=0.5;entryDx=0;entryDy=0;endArrow=none;endFill=0;" edge="1" parent="1" source="czYBRsTqgM-yQS3sCVQu-6" target="czYBRsTqgM-yQS3sCVQu-23">
          <mxGeometry relative="1" as="geometry" />
        </mxCell>
        <mxCell id="czYBRsTqgM-yQS3sCVQu-6" value="Nutricionista" style="shape=umlActor;verticalLabelPosition=bottom;verticalAlign=top;html=1;" vertex="1" parent="1">
          <mxGeometry x="1560" y="300" width="30" height="60" as="geometry" />
        </mxCell>
        <mxCell id="czYBRsTqgM-yQS3sCVQu-7" style="rounded=0;orthogonalLoop=1;jettySize=auto;html=1;endArrow=none;endFill=0;" edge="1" parent="1" source="czYBRsTqgM-yQS3sCVQu-9" target="czYBRsTqgM-yQS3sCVQu-14">
          <mxGeometry relative="1" as="geometry" />
        </mxCell>
        <mxCell id="czYBRsTqgM-yQS3sCVQu-8" style="rounded=0;orthogonalLoop=1;jettySize=auto;html=1;entryX=1;entryY=1;entryDx=0;entryDy=0;endArrow=none;endFill=0;" edge="1" parent="1" source="czYBRsTqgM-yQS3sCVQu-9" target="czYBRsTqgM-yQS3sCVQu-23">
          <mxGeometry relative="1" as="geometry" />
        </mxCell>
        <mxCell id="czYBRsTqgM-yQS3sCVQu-9" value="Médico" style="shape=umlActor;verticalLabelPosition=bottom;verticalAlign=top;html=1;" vertex="1" parent="1">
          <mxGeometry x="1560" y="590" width="30" height="60" as="geometry" />
        </mxCell>
        <mxCell id="czYBRsTqgM-yQS3sCVQu-10" value="" style="swimlane;startSize=0;" vertex="1" parent="1">
          <mxGeometry x="600" y="170" width="800" height="610" as="geometry">
            <mxRectangle x="270" y="-280" width="50" height="40" as="alternateBounds" />
          </mxGeometry>
        </mxCell>
        <mxCell id="czYBRsTqgM-yQS3sCVQu-11" style="rounded=0;orthogonalLoop=1;jettySize=auto;html=1;dashed=1;endArrow=open;endFill=0;entryX=0.5;entryY=0;entryDx=0;entryDy=0;" edge="1" parent="czYBRsTqgM-yQS3sCVQu-10" source="czYBRsTqgM-yQS3sCVQu-13" target="czYBRsTqgM-yQS3sCVQu-23">
          <mxGeometry relative="1" as="geometry" />
        </mxCell>
        <mxCell id="czYBRsTqgM-yQS3sCVQu-12" value="&amp;lt;&amp;lt;extend&amp;gt;&amp;gt;" style="edgeLabel;html=1;align=center;verticalAlign=middle;resizable=0;points=[];" vertex="1" connectable="0" parent="czYBRsTqgM-yQS3sCVQu-11">
          <mxGeometry x="-0.1528" relative="1" as="geometry">
            <mxPoint as="offset" />
          </mxGeometry>
        </mxCell>
        <mxCell id="czYBRsTqgM-yQS3sCVQu-13" value="Login" style="ellipse;whiteSpace=wrap;html=1;" vertex="1" parent="czYBRsTqgM-yQS3sCVQu-10">
          <mxGeometry x="280" y="230" width="140" height="70" as="geometry" />
        </mxCell>
        <mxCell id="czYBRsTqgM-yQS3sCVQu-14" value="Manter Agenta" style="ellipse;whiteSpace=wrap;html=1;" vertex="1" parent="czYBRsTqgM-yQS3sCVQu-10">
          <mxGeometry x="550" y="45" width="140" height="70" as="geometry" />
        </mxCell>
        <mxCell id="czYBRsTqgM-yQS3sCVQu-15" value="" style="rounded=0;orthogonalLoop=1;jettySize=auto;html=1;dashed=1;endArrow=open;endFill=0;exitX=1;exitY=0;exitDx=0;exitDy=0;entryX=0.5;entryY=1;entryDx=0;entryDy=0;" edge="1" parent="czYBRsTqgM-yQS3sCVQu-10" source="czYBRsTqgM-yQS3sCVQu-13" target="czYBRsTqgM-yQS3sCVQu-14">
          <mxGeometry relative="1" as="geometry">
            <mxPoint x="430" y="290" as="sourcePoint" />
            <mxPoint x="589" y="292" as="targetPoint" />
          </mxGeometry>
        </mxCell>
        <mxCell id="czYBRsTqgM-yQS3sCVQu-16" value="&amp;lt;&amp;lt;extend&amp;gt;&amp;gt;" style="edgeLabel;html=1;align=center;verticalAlign=middle;resizable=0;points=[];" vertex="1" connectable="0" parent="czYBRsTqgM-yQS3sCVQu-15">
          <mxGeometry x="-0.1263" relative="1" as="geometry">
            <mxPoint as="offset" />
          </mxGeometry>
        </mxCell>
        <mxCell id="czYBRsTqgM-yQS3sCVQu-17" value="Consultar horário" style="ellipse;whiteSpace=wrap;html=1;" vertex="1" parent="czYBRsTqgM-yQS3sCVQu-10">
          <mxGeometry x="30" y="45" width="140" height="70" as="geometry" />
        </mxCell>
        <mxCell id="czYBRsTqgM-yQS3sCVQu-18" value="" style="rounded=0;orthogonalLoop=1;jettySize=auto;html=1;dashed=1;endArrow=open;endFill=0;exitX=0;exitY=0;exitDx=0;exitDy=0;entryX=0.5;entryY=1;entryDx=0;entryDy=0;" edge="1" parent="czYBRsTqgM-yQS3sCVQu-10" source="czYBRsTqgM-yQS3sCVQu-13" target="czYBRsTqgM-yQS3sCVQu-17">
          <mxGeometry relative="1" as="geometry">
            <mxPoint x="295" y="330" as="sourcePoint" />
            <mxPoint x="455" y="123" as="targetPoint" />
          </mxGeometry>
        </mxCell>
        <mxCell id="czYBRsTqgM-yQS3sCVQu-19" value="&amp;lt;&amp;lt;extend&amp;gt;&amp;gt;" style="edgeLabel;html=1;align=center;verticalAlign=middle;resizable=0;points=[];" vertex="1" connectable="0" parent="czYBRsTqgM-yQS3sCVQu-18">
          <mxGeometry x="-0.1263" relative="1" as="geometry">
            <mxPoint as="offset" />
          </mxGeometry>
        </mxCell>
        <mxCell id="czYBRsTqgM-yQS3sCVQu-20" value="Mostrar horários livres" style="ellipse;whiteSpace=wrap;html=1;" vertex="1" parent="czYBRsTqgM-yQS3sCVQu-10">
          <mxGeometry x="300" y="45" width="140" height="70" as="geometry" />
        </mxCell>
        <mxCell id="czYBRsTqgM-yQS3sCVQu-21" style="rounded=0;orthogonalLoop=1;jettySize=auto;html=1;entryX=0;entryY=0.5;entryDx=0;entryDy=0;endArrow=open;endFill=0;dashed=1;exitX=1;exitY=0.5;exitDx=0;exitDy=0;" edge="1" parent="czYBRsTqgM-yQS3sCVQu-10" source="czYBRsTqgM-yQS3sCVQu-20" target="czYBRsTqgM-yQS3sCVQu-14">
          <mxGeometry relative="1" as="geometry">
            <mxPoint x="360" y="150" as="sourcePoint" />
            <mxPoint x="673" y="284" as="targetPoint" />
          </mxGeometry>
        </mxCell>
        <mxCell id="czYBRsTqgM-yQS3sCVQu-22" value="&amp;lt;&amp;lt;include&amp;gt;&amp;gt;" style="edgeLabel;html=1;align=center;verticalAlign=middle;resizable=0;points=[];" vertex="1" connectable="0" parent="czYBRsTqgM-yQS3sCVQu-21">
          <mxGeometry x="0.0734" y="-1" relative="1" as="geometry">
            <mxPoint as="offset" />
          </mxGeometry>
        </mxCell>
        <mxCell id="czYBRsTqgM-yQS3sCVQu-23" value="Realizar agendamento" style="ellipse;whiteSpace=wrap;html=1;" vertex="1" parent="czYBRsTqgM-yQS3sCVQu-10">
          <mxGeometry x="600" y="330" width="140" height="70" as="geometry" />
        </mxCell>
        <mxCell id="czYBRsTqgM-yQS3sCVQu-24" value="" style="rounded=0;orthogonalLoop=1;jettySize=auto;html=1;dashed=1;endArrow=open;endFill=0;exitX=1;exitY=0.5;exitDx=0;exitDy=0;entryX=0;entryY=0.5;entryDx=0;entryDy=0;" edge="1" parent="czYBRsTqgM-yQS3sCVQu-10" source="czYBRsTqgM-yQS3sCVQu-17" target="czYBRsTqgM-yQS3sCVQu-20">
          <mxGeometry relative="1" as="geometry">
            <mxPoint x="246" y="340" as="sourcePoint" />
            <mxPoint x="110" y="125" as="targetPoint" />
          </mxGeometry>
        </mxCell>
        <mxCell id="czYBRsTqgM-yQS3sCVQu-25" value="&amp;lt;&amp;lt;extend&amp;gt;&amp;gt;" style="edgeLabel;html=1;align=center;verticalAlign=middle;resizable=0;points=[];" vertex="1" connectable="0" parent="czYBRsTqgM-yQS3sCVQu-24">
          <mxGeometry x="-0.1263" relative="1" as="geometry">
            <mxPoint as="offset" />
          </mxGeometry>
        </mxCell>
        <mxCell id="czYBRsTqgM-yQS3sCVQu-26" value="Solicitar Agendamento" style="ellipse;whiteSpace=wrap;html=1;" vertex="1" parent="czYBRsTqgM-yQS3sCVQu-10">
          <mxGeometry x="130" y="380" width="140" height="70" as="geometry" />
        </mxCell>
        <mxCell id="czYBRsTqgM-yQS3sCVQu-27" value="" style="rounded=0;orthogonalLoop=1;jettySize=auto;html=1;dashed=1;endArrow=open;endFill=0;exitX=1;exitY=1;exitDx=0;exitDy=0;entryX=0;entryY=0.5;entryDx=0;entryDy=0;" edge="1" parent="czYBRsTqgM-yQS3sCVQu-10" source="czYBRsTqgM-yQS3sCVQu-26" target="czYBRsTqgM-yQS3sCVQu-23">
          <mxGeometry relative="1" as="geometry">
            <mxPoint x="281" y="220" as="sourcePoint" />
            <mxPoint x="110" y="125" as="targetPoint" />
          </mxGeometry>
        </mxCell>
        <mxCell id="czYBRsTqgM-yQS3sCVQu-28" value="&amp;lt;&amp;lt;include&amp;gt;&amp;gt;" style="edgeLabel;html=1;align=center;verticalAlign=middle;resizable=0;points=[];" vertex="1" connectable="0" parent="czYBRsTqgM-yQS3sCVQu-27">
          <mxGeometry x="-0.1263" relative="1" as="geometry">
            <mxPoint as="offset" />
          </mxGeometry>
        </mxCell>
        <mxCell id="czYBRsTqgM-yQS3sCVQu-29" style="rounded=0;orthogonalLoop=1;jettySize=auto;html=1;entryX=1;entryY=0;entryDx=0;entryDy=0;endArrow=open;endFill=0;dashed=1;exitX=0.5;exitY=1;exitDx=0;exitDy=0;" edge="1" parent="czYBRsTqgM-yQS3sCVQu-10" source="czYBRsTqgM-yQS3sCVQu-20" target="czYBRsTqgM-yQS3sCVQu-23">
          <mxGeometry relative="1" as="geometry">
            <mxPoint x="450" y="90" as="sourcePoint" />
            <mxPoint x="560" y="90" as="targetPoint" />
          </mxGeometry>
        </mxCell>
        <mxCell id="czYBRsTqgM-yQS3sCVQu-30" value="&amp;lt;&amp;lt;include&amp;gt;&amp;gt;" style="edgeLabel;html=1;align=center;verticalAlign=middle;resizable=0;points=[];" vertex="1" connectable="0" parent="czYBRsTqgM-yQS3sCVQu-29">
          <mxGeometry x="0.0734" y="-1" relative="1" as="geometry">
            <mxPoint as="offset" />
          </mxGeometry>
        </mxCell>
        <mxCell id="czYBRsTqgM-yQS3sCVQu-31" value="" style="rounded=0;orthogonalLoop=1;jettySize=auto;html=1;dashed=1;endArrow=open;endFill=0;exitX=0;exitY=1;exitDx=0;exitDy=0;entryX=0.5;entryY=0;entryDx=0;entryDy=0;" edge="1" parent="czYBRsTqgM-yQS3sCVQu-10" source="czYBRsTqgM-yQS3sCVQu-13" target="czYBRsTqgM-yQS3sCVQu-26">
          <mxGeometry relative="1" as="geometry">
            <mxPoint x="231" y="180" as="sourcePoint" />
            <mxPoint x="110" y="125" as="targetPoint" />
          </mxGeometry>
        </mxCell>
        <mxCell id="czYBRsTqgM-yQS3sCVQu-32" value="&amp;lt;&amp;lt;extend&amp;gt;&amp;gt;" style="edgeLabel;html=1;align=center;verticalAlign=middle;resizable=0;points=[];" vertex="1" connectable="0" parent="czYBRsTqgM-yQS3sCVQu-31">
          <mxGeometry x="-0.1263" relative="1" as="geometry">
            <mxPoint as="offset" />
          </mxGeometry>
        </mxCell>
        <mxCell id="czYBRsTqgM-yQS3sCVQu-33" value="Diagrama de Casos de Uso Geral" style="shape=umlFrame;whiteSpace=wrap;html=1;pointerEvents=0;recursiveResize=0;container=1;collapsible=0;width=240;height=30;" vertex="1" parent="1">
          <mxGeometry x="270" y="110" width="1370" height="840" as="geometry" />
        </mxCell>
      </root>
    </mxGraphModel>
  </diagram>
</mxfile>
